# xmcd CD database file
#
# Track frame offsets:
#	150
#	8698
#	19678
#	37493
#	53018
#	69582
#	87979
#	103863
#	116358
#	131487
#	141536
#	159800
#
# Disc length: 2350 seconds
#
# Revision: 1
# Processed by: cddbd v1.5.2PL0 Copyright (c) Steve Scherf et al.
# Submitted via: jetAudio 7
#
DISCID=9e092c0c
DTITLE=Tommy Emmanuel - The Mystery
DYEAR=2006
DGENRE=blues
TTITLE0=Cantina Senese
TTITLE1=GameShow Rag/CanonBall Rag
TTITLE2=The Mystery
TTITLE3=Cowboy's Dream
TTITLE4=Walls
TTITLE5=Lewis And Clark
TTITLE6=The Digger's Waltz
TTITLE7=Antonella's Birthday
TTITLE8=And So it Goes
TTITLE9=That's The Spirit
TTITLE10=Footprints
TTITLE11=Keep It Simple
EXTD=
EXTT0=
EXTT1=
EXTT2=
EXTT3=
EXTT4=
EXTT5=
EXTT6=
EXTT7=
EXTT8=
EXTT9=
EXTT10=
EXTT11=
PLAYORDER=
